# xmcd CD database file
#
# Track frame offsets:
#	150
#	13977
#	17912
#	27915
#	28745
#	34985
#	58102
#	67885
#	84220
#	91890
#	98910
#	108877
#	131530
#	145882
#	169677
#	207002
#	211812
#
# Disc length: 2866 seconds
#
# Revision: 1
# Processed by: cddbd v1.5.1PL2 Copyright (c) Steve Scherf et al.
# Submitted via: CDex 1.51
#
DISCID=de0b3011
DTITLE=浦和めぐみ・萩森洵子・中島千里・鈴木砂織・南場千絵子・山口由里子 - ボイスチャレンジャーVol.2-卒業II編-チャレンジディスク
DYEAR=1900
DGENRE=ゲーム関連
TTITLE0=第1話　「女番」というキャラクターの想定
TTITLE1=第1話　五人の会話に入ることが出来ないシーン
TTITLE2=第1話　留美「はい…」の台詞
TTITLE3=第1話　見世物にされるシーン
TTITLE4=第1話　留美のラストのセリフ
TTITLE5=第2話　留美から老婆へ変わるシーン
TTITLE6=第2話　留美から美少年に声が変化するシーン
TTITLE7=第2話　クシャミ
TTITLE8=第2話　回想シーン
TTITLE9=第3話　「ブリッコ」というキャラクターの想定
TTITLE10=第3話　回想シーン
TTITLE11=第3話　心の声＝モノローグ
TTITLE12=第4話　「ジュディー」というキャラクターの想定
TTITLE13=第4話　留美の本音(モノローグ)とジュディーの声
TTITLE14=第5話　「可哀想な女子高生」というキャラクターの想定
TTITLE15=第5話　今まで演じた全てのキャラクターが一斉に登場
TTITLE16=第5話　最後のオチのセリフ
EXTD=
EXTT0=
EXTT1=
EXTT2=
EXTT3=
EXTT4=
EXTT5=
EXTT6=
EXTT7=
EXTT8=
EXTT9=
EXTT10=
EXTT11=
EXTT12=
EXTT13=
EXTT14=
EXTT15=
EXTT16=
PLAYORDER=
